# xmcd
#
# Track frame offsets:
#	150
#	24677
#	46365
#	65062
#	78717
#	92402
#	106392
#	119295
#	131635
#	143250
#	156995
#	169860
#
# Disc length: 2443
#
# Revision: 1
# Processed by: cddbd v1.5.1PL0 Copyright (c) Steve Scherf et al.
# Submitted via: ExactAudioCopy v0.90b4
# Normalized: r0:DSETVAR1
#
DISCID=a009890c
DTITLE=Various Artist - The Best of Blues20th Century Masters-Millennium Collection
DYEAR=2003
DGENRE=Blues
TTITLE0=B.B. King - The Thrill Is Gone
TTITLE1=Taj Mahal - Leaving Trunk
TTITLE2=Robert Cray - Smoking Gun
TTITLE3=Etta James - At Last
TTITLE4=Koko Taylor - Wang Dang Doodle
TTITLE5=Sonny Terry and Brownie McGhee - Big Wind (Is A' Comin')
TTITLE6=Muddy Waters - I'm Your Hoochie Coochie Man
TTITLE7=John Lee Hooker - I'm In The Mood
TTITLE8=Howlin' Wolf - Sittin' On Top Of The World
TTITLE9=T-Bone Walker - Call It Stormy Monday
TTITLE10=Robert Johnson - Come On In My Kitchen
TTITLE11=Bessie Smith - Nobody Knows Your When You're Down And Out
EXTD=
EXTT0=
EXTT1=
EXTT2=
EXTT3=
EXTT4=
EXTT5=
EXTT6=
EXTT7=
EXTT8=
EXTT9=
EXTT10=
EXTT11=
PLAYORDER=
